<svg width="200" height="192" viewBox="0 0 200 192" fill="none" xmlns="http://www.w3.org/2000/svg">
<g clip-path="url(#clip0_3_4)">
<rect width="200" height="192" fill="white"/>
<rect width="200" height="200" fill="#7ADEDE"/>
<ellipse cx="100.5" cy="200" rx="94.5" ry="84" fill="#64A7CD"/>
<path d="M129.786 173.039C141.299 166.446 150.302 156.224 155.388 143.97C160.473 131.716 161.354 118.123 157.892 105.315C154.431 92.5077 146.822 81.2087 136.255 73.1856C125.689 65.1624 112.762 60.8675 99.4952 60.9726C86.2286 61.0778 73.3709 65.5771 62.9333 73.7667C52.4956 81.9563 45.0667 93.3745 41.8084 106.235C38.5501 119.096 39.6462 132.674 44.9253 144.845C50.2044 157.017 59.3688 167.096 70.985 173.505L89.2988 140.313C85.022 137.953 81.6479 134.242 79.7042 129.761C77.7605 125.28 77.357 120.28 78.5566 115.545C79.7562 110.81 82.4914 106.606 86.3343 103.591C90.1773 100.576 94.9112 98.9195 99.7957 98.8807C104.68 98.842 109.44 100.423 113.33 103.377C117.22 106.331 120.022 110.491 121.296 115.207C122.571 119.922 122.246 124.927 120.374 129.439C118.502 133.95 115.187 137.714 110.948 140.141L129.786 173.039Z" fill="#64A7CD"/>
<path d="M146 100.5C146 125.629 125.629 146 100.5 146C75.371 146 55 125.629 55 100.5C55 75.371 75.371 55 100.5 55C125.629 55 146 75.371 146 100.5Z" fill="#DA8DD2"/>
</g>
<defs>
<clipPath id="clip0_3_4">
<rect width="200" height="192" fill="white"/>
</clipPath>
</defs>
</svg>
